<svg id="Layer_1" data-name="Layer 1" xmlns="http://www.w3.org/2000/svg" viewBox="0 0 318.89 50.48"><defs><style>.cls-1{fill:#e6e6e6;}.cls-2{fill:#b3b3b3;}</style></defs><title>logo</title><path class="cls-1" d="M434.52,219.75a8.91,8.91,0,0,1-1,4.1,9.49,9.49,0,0,1-2.7,3.22,13,13,0,0,1-4.27,2.11,19.65,19.65,0,0,1-5.65.76h-12.6l-1.08,6.16h-7.42L402,223.78h20.74a4.74,4.74,0,0,0,3.06-.9,2.83,2.83,0,0,0,1.12-2.3,2,2,0,0,0-.81-1.67,3.85,3.85,0,0,0-2.39-.63H403l6-6.26h15.12a16,16,0,0,1,4.45.56,9.51,9.51,0,0,1,3.24,1.58,6.86,6.86,0,0,1,2,2.45A7.18,7.18,0,0,1,434.52,219.75Z" transform="translate(-393.16 -211.57)"/><path class="cls-1" d="M464.58,229.86l-5.9,6.19H435.49L439.78,212h27.86l-5.94,6.26H446.11l-.5,2.88h19l-5.18,5.47H444.64l-.58,3.28Z" transform="translate(-393.16 -211.57)"/><path class="cls-1" d="M500.18,236.05h-10L486,229.68H474.52l-1.12,6.37h-7.45l2.16-12.31h21a7.18,7.18,0,0,0,1.78-.22,5.13,5.13,0,0,0,1.48-.61,3.18,3.18,0,0,0,1-1,2.4,2.4,0,0,0,.38-1.31,2,2,0,0,0-1-1.78,5.18,5.18,0,0,0-2.7-.59h-21l6-6.26h15.48a23.49,23.49,0,0,1,3.83.32,11.64,11.64,0,0,1,3.56,1.17,7.43,7.43,0,0,1,2.61,2.25,6,6,0,0,1,1,3.56,8.69,8.69,0,0,1-.56,3.1,8.83,8.83,0,0,1-1.58,2.66,9.45,9.45,0,0,1-2.47,2,10,10,0,0,1-3.17,1.15q.5.47,1.13,1.19t1.64,2Z" transform="translate(-393.16 -211.57)"/><path class="cls-1" d="M527.72,221.58a10.59,10.59,0,0,1,6,1.39,4.63,4.63,0,0,1,2,4.09,9.79,9.79,0,0,1-.65,3.6,7.11,7.11,0,0,1-2.07,2.86,10,10,0,0,1-3.67,1.87,19.4,19.4,0,0,1-5.45.67H501.44l5.87-6.19h18.25a3.75,3.75,0,0,0,2.2-.5,1.8,1.8,0,0,0,.68-1.55q0-1.44-2.27-1.44H513q-4.1,0-6-1.58a5.2,5.2,0,0,1-1.91-4.21,8.81,8.81,0,0,1,.65-3.4,7,7,0,0,1,2.07-2.74,10.13,10.13,0,0,1,3.65-1.82,19.56,19.56,0,0,1,5.4-.65H537.8l-5.9,6.26H515.2a4.11,4.11,0,0,0-2.2.45,1.69,1.69,0,0,0-.68,1.53q0,1.37,2.3,1.37Z" transform="translate(-393.16 -211.57)"/><path class="cls-1" d="M545.08,236.05h-7.45L541.91,212h7.42Z" transform="translate(-393.16 -211.57)"/><path class="cls-1" d="M574.6,221.58a10.59,10.59,0,0,1,6,1.39,4.63,4.63,0,0,1,2,4.09,9.79,9.79,0,0,1-.65,3.6,7.11,7.11,0,0,1-2.07,2.86,10,10,0,0,1-3.67,1.87,19.4,19.4,0,0,1-5.45.67H548.32l5.87-6.19h18.25a3.75,3.75,0,0,0,2.2-.5,1.8,1.8,0,0,0,.68-1.55q0-1.44-2.27-1.44H559.91q-4.1,0-6-1.58a5.2,5.2,0,0,1-1.91-4.21,8.81,8.81,0,0,1,.65-3.4,7,7,0,0,1,2.07-2.74,10.13,10.13,0,0,1,3.65-1.82,19.56,19.56,0,0,1,5.4-.65h20.92l-5.9,6.26h-16.7a4.11,4.11,0,0,0-2.2.45,1.69,1.69,0,0,0-.68,1.53q0,1.37,2.3,1.37Z" transform="translate(-393.16 -211.57)"/><path class="cls-1" d="M616.43,212l-6,6.26h-8.57l-3.17,17.82h-7.45l3.13-17.82h-11.3l6-6.26Z" transform="translate(-393.16 -211.57)"/><path class="cls-1" d="M643.5,229.86l-5.9,6.19H614.41L618.7,212h27.86l-5.94,6.26H625l-.5,2.88h19l-5.18,5.47H623.56l-.58,3.28Z" transform="translate(-393.16 -211.57)"/><path class="cls-1" d="M669.28,236.45a4,4,0,0,1-1.39-.23,3.84,3.84,0,0,1-1.39-1.06l-12.42-13.25-2.48,14.15h-6.77l3.49-20A6.88,6.88,0,0,1,649,214a4.58,4.58,0,0,1,1.13-1.4,4.44,4.44,0,0,1,1.46-.79,5.32,5.32,0,0,1,1.62-.25,4.21,4.21,0,0,1,1.37.23,3.45,3.45,0,0,1,1.4,1.06l12.42,13.25L670.93,212h6.77l-3.56,19.94a6.57,6.57,0,0,1-.7,2.05,5.24,5.24,0,0,1-1.13,1.42,4.07,4.07,0,0,1-1.44.81A5.22,5.22,0,0,1,669.28,236.45Z" transform="translate(-393.16 -211.57)"/><path class="cls-1" d="M712,212l-6,6.26H697.5l-3.17,17.82h-7.45L690,218.23h-11.3l6-6.26Z" transform="translate(-393.16 -211.57)"/><path class="cls-2" d="M419.44,247.58a10.59,10.59,0,0,1,6,1.39,4.63,4.63,0,0,1,2,4.09,9.79,9.79,0,0,1-.65,3.6,7.11,7.11,0,0,1-2.07,2.86,10,10,0,0,1-3.67,1.87,19.4,19.4,0,0,1-5.45.67H393.16l5.87-6.19h18.25a3.75,3.75,0,0,0,2.2-.5,1.8,1.8,0,0,0,.68-1.55q0-1.44-2.27-1.44H404.75q-4.1,0-6-1.58a5.2,5.2,0,0,1-1.91-4.21,8.81,8.81,0,0,1,.65-3.4,7,7,0,0,1,2.07-2.74,10.13,10.13,0,0,1,3.65-1.82,19.56,19.56,0,0,1,5.4-.65h20.92l-5.9,6.26h-16.7a4.11,4.11,0,0,0-2.2.45,1.69,1.69,0,0,0-.68,1.53q0,1.37,2.3,1.37Z" transform="translate(-393.16 -211.57)"/><path class="cls-2" d="M454.1,247.58a10.59,10.59,0,0,1,6,1.39,4.63,4.63,0,0,1,2,4.09,9.79,9.79,0,0,1-.65,3.6,7.11,7.11,0,0,1-2.07,2.86,10,10,0,0,1-3.67,1.87,19.4,19.4,0,0,1-5.45.67H427.82l5.87-6.19h18.25a3.75,3.75,0,0,0,2.2-.5,1.8,1.8,0,0,0,.68-1.55q0-1.44-2.27-1.44H439.42q-4.1,0-6-1.58a5.2,5.2,0,0,1-1.91-4.21,8.81,8.81,0,0,1,.65-3.4,7,7,0,0,1,2.07-2.74,10.13,10.13,0,0,1,3.65-1.82,19.56,19.56,0,0,1,5.4-.65h20.92l-5.9,6.26h-16.7a4.11,4.11,0,0,0-2.2.45,1.69,1.69,0,0,0-.68,1.53q0,1.37,2.3,1.37Z" transform="translate(-393.16 -211.57)"/><path class="cls-2" d="M470.84,238h8.82l-4.28,24.08h-7.45l3.13-17.82h-5.87Z" transform="translate(-393.16 -211.57)"/><path class="cls-2" d="M483.84,255.86h16.49a3.28,3.28,0,0,0,2-.5,1.72,1.72,0,0,0,.65-1.44q0-1.37-2.09-1.37H486.47l4.79-5.15h10.69a3.27,3.27,0,0,0,1.66-.41,1.57,1.57,0,0,0,.72-1.49,1,1,0,0,0-.56-1,2.9,2.9,0,0,0-1.28-.27H482.33l5.9-6.26h15.08a11.31,11.31,0,0,1,6.14,1.42,4.7,4.7,0,0,1,2.21,4.23,6.53,6.53,0,0,1-.38,2.3,6.3,6.3,0,0,1-1,1.76,5.8,5.8,0,0,1-1.37,1.24,6.51,6.51,0,0,1-1.55.74,4.16,4.16,0,0,1,2.14,1.51,4.64,4.64,0,0,1,.85,2.88,9.55,9.55,0,0,1-.45,2.9,5.83,5.83,0,0,1-1.69,2.56,9.2,9.2,0,0,1-3.4,1.84,18.57,18.57,0,0,1-5.62.7H478Z" transform="translate(-393.16 -211.57)"/></svg>